-790.902000 501.760000 318.000000
-790.902000 501.760000 318.000000
-792.899600 501.760000 318.097960
-794.897199 501.760000 318.195920
-796.894799 501.760000 318.293880
-798.892398 501.760000 318.391840
-800.889998 501.760000 318.489800
-802.887597 501.760000 318.587760
-804.885197 501.760000 318.685720
-806.882796 501.760000 318.783680
-808.880396 501.760000 318.881640
-811.294000 501.760000 319.000000
-811.294000 501.760000 319.000000
-811.294000 499.760000 319.000000
-811.294000 497.760000 319.000000
-811.294000 495.760000 319.000000
-811.294000 493.760000 319.000000
-811.294000 491.760000 319.000000
-811.294000 489.760000 319.000000
-811.294000 487.760000 319.000000
-811.294000 485.760000 319.000000
-811.294000 483.760000 319.000000
-811.294000 481.760000 319.000000
-811.294000 479.760000 319.000000
-811.294000 477.760000 319.000000
-811.294000 475.760000 319.000000
-811.294000 473.760000 319.000000
-811.294000 471.760000 319.000000
-811.294000 469.760000 319.000000
-811.294000 467.760000 319.000000
-811.294000 465.760000 319.000000
-811.294000 463.760000 319.000000
-811.294000 461.760000 319.000000
-811.294000 459.760000 319.000000
-811.294000 457.760000 319.000000
-811.294000 455.760000 319.000000
-811.294000 453.760000 319.000000
-811.294000 451.760000 319.000000
-811.294000 449.760000 319.000000
-811.294000 447.760000 319.000000
-811.294000 445.760000 319.000000
-811.294000 443.760000 319.000000
-811.294000 441.760000 319.000000
-811.294000 439.760000 319.000000
-811.294000 437.760000 319.000000
-811.294000 435.760000 319.000000
-811.294000 433.760000 319.000000
-811.294000 431.760000 319.000000
-811.294000 429.760000 319.000000
-811.294000 427.760000 319.000000
-811.294000 425.760000 319.000000
-811.294000 423.760000 319.000000
-811.294000 421.760000 319.000000
-811.294000 419.760000 319.000000
-811.294000 417.760000 319.000000
-811.294000 415.760000 319.000000
-811.294000 413.760000 319.000000
-811.294000 411.760000 319.000000
-811.294000 409.760000 319.000000
-811.294000 407.760000 319.000000
-811.294000 405.760000 319.000000
-811.294000 403.760000 319.000000
-811.294000 401.760000 319.000000
-811.294000 399.760000 319.000000
-811.294000 397.760000 319.000000
-811.294000 395.760000 319.000000
-811.294000 393.760000 319.000000
-811.294000 391.760000 319.000000
-811.294000 389.760000 319.000000
-811.294000 387.760000 319.000000
-811.294000 385.760000 319.000000
-811.294000 383.760000 319.000000
-811.294000 381.760000 319.000000
-811.294000 379.760000 319.000000
-811.294000 377.760000 319.000000
-811.294000 375.760000 319.000000
-811.294000 373.760000 319.000000
-811.294000 371.760000 319.000000
-811.294000 369.760000 319.000000
-811.294000 367.760000 319.000000
-811.294000 365.760000 319.000000
-811.294000 363.760000 319.000000
-811.294000 361.760000 319.000000
-811.294000 359.760000 319.000000
-811.294000 357.760000 319.000000
-811.294000 355.760000 319.000000
-811.294000 353.760000 319.000000
-811.294000 351.760000 319.000000
-811.294000 349.760000 319.000000
-811.294000 347.760000 319.000000
-811.294000 345.760000 319.000000
-811.294000 343.760000 319.000000
-811.294000 341.760000 319.000000
-811.294000 339.760000 319.000000
-811.294000 337.760000 319.000000
-811.294000 335.760000 319.000000
-811.294000 333.760000 319.000000
-811.294000 331.760000 319.000000
-811.294000 329.760000 319.000000
-811.294000 327.760000 319.000000
-811.294000 325.760000 319.000000
-811.294000 323.760000 319.000000
-811.294000 321.760000 319.000000
-811.294000 319.760000 319.000000
-811.294000 317.760000 319.000000
-811.294000 315.760000 319.000000
-811.294000 313.760000 319.000000
-811.294000 311.760000 319.000000
-811.294000 309.760000 319.000000
-811.294000 307.760000 319.000000
-811.294000 305.760000 319.000000
-811.294000 303.760000 319.000000
-811.294000 301.760000 319.000000
-811.294000 299.760000 319.000000
-811.294000 297.760000 319.000000
-811.294000 295.760000 319.000000
-811.294000 293.760000 319.000000
-811.294000 291.760000 319.000000
-811.294000 289.760000 319.000000
-811.294000 287.760000 319.000000
-811.294000 285.760000 319.000000
-811.294000 283.760000 319.000000
-811.294000 281.760000 319.000000
-811.294000 279.760000 319.000000
-811.294000 277.760000 319.000000
-811.294000 275.760000 319.000000
-811.294000 273.760000 319.000000
-811.294000 271.760000 319.000000
-811.294000 269.760000 319.000000
-811.294000 267.760000 319.000000
-811.294000 265.760000 319.000000
-811.294000 263.760000 319.000000
-811.294000 261.760000 319.000000
-811.294000 259.760000 319.000000
-811.294000 257.760000 319.000000
-811.294000 255.760000 319.000000
-811.294000 253.760000 319.000000
-811.294000 251.760000 319.000000
-811.294000 249.760000 319.000000
-811.294000 245.760000 319.000000
-811.294000 245.760000 319.000000
-809.294000 245.760000 319.000000
-807.294000 245.760000 319.000000
-805.294000 245.760000 319.000000
-803.294000 245.760000 319.000000
-801.294000 245.760000 319.000000
-799.294000 245.760000 319.000000
-797.294000 245.760000 319.000000
-795.294000 245.760000 319.000000
-793.294000 245.760000 319.000000
-791.294000 245.760000 319.000000
-789.294000 245.760000 319.000000
-787.294000 245.760000 319.000000
-785.294000 245.760000 319.000000
-783.294000 245.760000 319.000000
-781.294000 245.760000 319.000000
-779.294000 245.760000 319.000000
-777.294000 245.760000 319.000000
-775.294000 245.760000 319.000000
-773.294000 245.760000 319.000000
-770.510000 245.760000 319.000000
-770.510000 245.760000 319.000000
-770.510000 243.760000 319.000000
-770.510000 241.760000 319.000000
-770.510000 239.760000 319.000000
-770.510000 237.760000 319.000000
-770.510000 235.760000 319.000000
-770.510000 233.760000 319.000000
-770.510000 231.760000 319.000000
-770.510000 229.760000 319.000000
-770.510000 227.760000 319.000000
-770.510000 225.760000 319.000000
-770.510000 223.760000 319.000000
-770.510000 221.760000 319.000000
-770.510000 219.760000 319.000000
-770.510000 217.760000 319.000000
-770.510000 215.760000 319.000000
-770.510000 213.760000 319.000000
-770.510000 211.760000 319.000000
-770.510000 209.760000 319.000000
-770.510000 207.760000 319.000000
-770.510000 205.760000 319.000000
-770.510000 203.760000 319.000000
-770.510000 201.760000 319.000000
-770.510000 199.760000 319.000000
-770.510000 197.760000 319.000000
-770.510000 195.760000 319.000000
-770.510000 193.760000 319.000000
-770.510000 191.760000 319.000000
-770.510000 189.760000 319.000000
-770.510000 187.760000 319.000000
-770.510000 185.760000 319.000000
-770.510000 183.760000 319.000000
-770.510000 181.760000 319.000000
-770.510000 179.760000 319.000000
-770.510000 177.760000 319.000000
-770.510000 175.760000 319.000000
-770.510000 173.760000 319.000000
-770.510000 171.760000 319.000000
-770.510000 169.760000 319.000000
-770.510000 167.760000 319.000000
-770.510000 165.760000 319.000000
-770.510000 163.760000 319.000000
-770.510000 161.760000 319.000000
-770.510000 159.760000 319.000000
-770.510000 157.760000 319.000000
-770.510000 155.760000 319.000000
-770.510000 153.760000 319.000000
-770.510000 151.760000 319.000000
-770.510000 149.760000 319.000000
-770.510000 147.760000 319.000000
-770.510000 145.760000 319.000000
-770.510000 143.760000 319.000000
-770.510000 141.760000 319.000000
-770.510000 139.760000 319.000000
-770.510000 137.760000 319.000000
-770.510000 135.760000 319.000000
-770.510000 133.760000 319.000000
-770.510000 131.760000 319.000000
-770.510000 129.760000 319.000000
-770.510000 127.760000 319.000000
-770.510000 125.760000 319.000000
-770.510000 123.760000 319.000000
-770.510000 121.760000 319.000000
-770.510000 119.760000 319.000000
-770.510000 117.760000 319.000000
-770.510000 115.760000 319.000000
-770.510000 113.760000 319.000000
-770.510000 111.760000 319.000000
-770.510000 109.760000 319.000000
-770.510000 107.760000 319.000000
-770.510000 105.760000 319.000000
-770.510000 103.760000 319.000000
-770.510000 101.760000 319.000000
-770.510000 99.760000 319.000000
-770.510000 97.760000 319.000000
-770.510000 95.760000 319.000000
-770.510000 93.760000 319.000000
-770.510000 91.760000 319.000000
-770.510000 89.760000 319.000000
-770.510000 87.760000 319.000000
-770.510000 85.760000 319.000000
-770.510000 83.760000 319.000000
-770.510000 81.760000 319.000000
-770.510000 79.760000 319.000000
-770.510000 77.760000 319.000000
-770.510000 75.760000 319.000000
-770.510000 73.760000 319.000000
-770.510000 71.760000 319.000000
-770.510000 69.760000 319.000000
-770.510000 67.760000 319.000000
-770.510000 65.760000 319.000000
-770.510000 63.760000 319.000000
-770.510000 61.760000 319.000000
-770.510000 59.760000 319.000000
-770.510000 57.760000 319.000000
-770.510000 55.760000 319.000000
-770.510000 53.760000 319.000000
-770.510000 51.760000 319.000000
-770.510000 49.760000 319.000000
-770.510000 47.760000 319.000000
-770.510000 45.760000 319.000000
-770.510000 43.760000 319.000000
-770.510000 41.760000 319.000000
-770.510000 39.760000 319.000000
-770.510000 37.760000 319.000000
-770.510000 35.760000 319.000000
-770.510000 33.760000 319.000000
-770.510000 31.760000 319.000000
-770.510000 29.760000 319.000000
-770.510000 27.760000 319.000000
-770.510000 25.760000 319.000000
-770.510000 23.760000 319.000000
-770.510000 21.760000 319.000000
-770.510000 19.760000 319.000000
-770.510000 17.760000 319.000000
-770.510000 15.760000 319.000000
-770.510000 13.760000 319.000000
-770.510000 11.760000 319.000000
-770.510000 9.760000 319.000000
-770.510000 7.760000 319.000000
-770.510000 5.760000 319.000000
-770.510000 3.760000 319.000000
-770.510000 1.760000 319.000000
-770.510000 -0.240000 319.000000
-770.510000 -2.240000 319.000000
-770.510000 -4.240000 319.000000
-770.510000 -6.240000 319.000000
-770.510000 -10.240000 319.000000
-770.510000 -10.240000 319.000000
-772.507600 -10.240000 319.097960
-774.505199 -10.240000 319.195920
-776.502799 -10.240000 319.293880
-778.500398 -10.240000 319.391840
-780.497998 -10.240000 319.489800
-782.495597 -10.240000 319.587760
-784.493197 -10.240000 319.685720
-786.490796 -10.240000 319.783680
-788.488396 -10.240000 319.881640
-790.902000 -10.240000 320.000000
-790.902000 -10.240000 320.000000
-788.921489 -10.516955 320.029505
-786.940977 -10.793910 320.059010
-784.960466 -11.070866 320.088516
-782.979955 -11.347821 320.118021
-780.999443 -11.624776 320.147526
-779.018932 -11.901731 320.177031
-777.038420 -12.178687 320.206536
-775.057909 -12.455642 320.236041
-773.077398 -12.732597 320.265547
-771.096886 -13.009552 320.295052
-769.116375 -13.286507 320.324557
-767.135864 -13.563463 320.354062
-765.155352 -13.840418 320.383567
-763.174841 -14.117373 320.413072
-761.194330 -14.394328 320.442578
-759.213818 -14.671284 320.472083
-757.233307 -14.948239 320.501588
-755.252796 -15.225194 320.531093
-753.272284 -15.502149 320.560598
-751.291773 -15.779104 320.590103
-749.311261 -16.056060 320.619609
-747.330750 -16.333015 320.649114
-745.350239 -16.609970 320.678619
-743.369727 -16.886925 320.708124
-741.389216 -17.163881 320.737629
-739.408705 -17.440836 320.767134
-737.428193 -17.717791 320.796640
-735.447682 -17.994746 320.826145
-733.467171 -18.271701 320.855650
-731.486659 -18.548657 320.885155
-729.506148 -18.825612 320.914660
-727.525636 -19.102567 320.944166
-725.545125 -19.379522 320.973671
-723.564614 -19.656478 321.003176
-721.584102 -19.933433 321.032681
-719.603591 -20.210388 321.062186
-717.623080 -20.487343 321.091691
-715.642568 -20.764298 321.121197
-713.662057 -21.041254 321.150702
-711.681546 -21.318209 321.180207
-709.701034 -21.595164 321.209712
-707.720523 -21.872119 321.239217
-705.740011 -22.149075 321.268722
-703.759500 -22.426030 321.298228
-701.778989 -22.702985 321.327733
-699.798477 -22.979940 321.357238
-697.817966 -23.256895 321.386743
-695.837455 -23.533851 321.416248
-693.856943 -23.810806 321.445753
-691.876432 -24.087761 321.475259
-689.895921 -24.364716 321.504764
-687.915409 -24.641672 321.534269
-685.934898 -24.918627 321.563774
-683.954387 -25.195582 321.593279
-681.973875 -25.472537 321.622784
-679.993364 -25.749492 321.652290
-678.012852 -26.026448 321.681795
-676.032341 -26.303403 321.711300
-674.051830 -26.580358 321.740805
-672.071318 -26.857313 321.770310
-670.090807 -27.134268 321.799816
-668.110296 -27.411224 321.829321
-666.129784 -27.688179 321.858826
-664.149273 -27.965134 321.888331
-662.168762 -28.242089 321.917836
-660.188250 -28.519045 321.947341
-658.207739 -28.796000 321.976847
-656.227227 -29.072955 322.006352
-654.246716 -29.349910 322.035857
-652.266205 -29.626865 322.065362
-650.285693 -29.903821 322.094867
-648.305182 -30.180776 322.124372
-646.324671 -30.457731 322.153878
-644.344159 -30.734686 322.183383
-642.363648 -31.011642 322.212888
-640.383137 -31.288597 322.242393
-638.402625 -31.565552 322.271898
-636.422114 -31.842507 322.301403
-634.441602 -32.119462 322.330909
-632.461091 -32.396418 322.360414
-630.480580 -32.673373 322.389919
-628.500068 -32.950328 322.419424
-626.519557 -33.227283 322.448929
-624.539046 -33.504239 322.478435
-622.558534 -33.781194 322.507940
-620.578023 -34.058149 322.537445
-618.597512 -34.335104 322.566950
-616.617000 -34.612059 322.596455
-614.636489 -34.889015 322.625960
-612.655978 -35.165970 322.655466
-610.675466 -35.442925 322.684971
-608.694955 -35.719880 322.714476
-606.714443 -35.996836 322.743981
-604.733932 -36.273791 322.773486
-602.753421 -36.550746 322.802991
-600.772909 -36.827701 322.832497
-598.792398 -37.104656 322.862002
-596.811887 -37.381612 322.891507
-594.831375 -37.658567 322.921012
-592.850864 -37.935522 322.950517
-590.870353 -38.212477 322.980022
-588.889841 -38.489433 323.009528
-586.909330 -38.766388 323.039033
-584.928818 -39.043343 323.068538
-582.948307 -39.320298 323.098043
-580.967796 -39.597253 323.127548
-578.987284 -39.874209 323.157053
-577.006773 -40.151164 323.186559
-575.026262 -40.428119 323.216064
-573.045750 -40.705074 323.245569
-571.065239 -40.982030 323.275074
-569.084728 -41.258985 323.304579
-567.104216 -41.535940 323.334085
-565.123705 -41.812895 323.363590
-563.143194 -42.089850 323.393095
-561.162682 -42.366806 323.422600
-559.182171 -42.643761 323.452105
-557.201659 -42.920716 323.481610
-555.221148 -43.197671 323.511116
-553.240637 -43.474627 323.540621
-551.260125 -43.751582 323.570126
-549.279614 -44.028537 323.599631
-547.299103 -44.305492 323.629136
-545.318591 -44.582447 323.658641
-543.338080 -44.859403 323.688147
-541.357569 -45.136358 323.717652
-539.377057 -45.413313 323.747157
-537.396546 -45.690268 323.776662
-535.416034 -45.967224 323.806167
-533.435523 -46.244179 323.835672
-531.455012 -46.521134 323.865178
-529.474500 -46.798089 323.894683
-527.493989 -47.075044 323.924188
-525.513478 -47.352000 323.953693
-523.532966 -47.628955 323.983198
-521.552455 -47.905910 324.012703
-519.571944 -48.182865 324.042209
-517.591432 -48.459821 324.071714
-515.610921 -48.736776 324.101219
-513.630409 -49.013731 324.130724
-511.649898 -49.290686 324.160229
-509.669387 -49.567641 324.189735
-507.688875 -49.844597 324.219240
-505.708364 -50.121552 324.248745
-503.727853 -50.398507 324.278250
-501.747341 -50.675462 324.307755
-499.766830 -50.952418 324.337260
-497.786319 -51.229373 324.366766
-495.805807 -51.506328 324.396271
-493.825296 -51.783283 324.425776
-491.844785 -52.060238 324.455281
-489.864273 -52.337194 324.484786
-487.883762 -52.614149 324.514291
-485.903250 -52.891104 324.543797
-483.922739 -53.168059 324.573302
-481.942228 -53.445015 324.602807
-479.961716 -53.721970 324.632312
-477.981205 -53.998925 324.661817
-476.000694 -54.275880 324.691322
-474.020182 -54.552835 324.720828
-472.039671 -54.829791 324.750333
-470.059160 -55.106746 324.779838
-468.078648 -55.383701 324.809343
-466.098137 -55.660656 324.838848
-464.117625 -55.937612 324.868353
-462.137114 -56.214567 324.897859
-460.156603 -56.491522 324.927364
-458.176091 -56.768477 324.956869
-456.195580 -57.045432 324.986374
-454.215069 -57.322388 325.015879
-452.234557 -57.599343 325.045385
-450.254046 -57.876298 325.074890
-448.273535 -58.153253 325.104395
-446.293023 -58.430209 325.133900
-444.312512 -58.707164 325.163405
-442.332001 -58.984119 325.192910
-440.351489 -59.261074 325.222416
-438.370978 -59.538029 325.251921
-436.390466 -59.814985 325.281426
-434.409955 -60.091940 325.310931
-432.429444 -60.368895 325.340436
-430.448932 -60.645850 325.369941
-428.468421 -60.922805 325.399447
-426.487910 -61.199761 325.428952
-424.507398 -61.476716 325.458457
-422.526887 -61.753671 325.487962
-420.546376 -62.030626 325.517467
-418.565864 -62.307582 325.546972
-416.585353 -62.584537 325.576478
-414.604841 -62.861492 325.605983
-412.624330 -63.138447 325.635488
-410.643819 -63.415402 325.664993
-408.663307 -63.692358 325.694498
-406.682796 -63.969313 325.724004
-404.702285 -64.246268 325.753509
-402.721773 -64.523223 325.783014
-400.741262 -64.800179 325.812519
-398.760751 -65.077134 325.842024
-396.780239 -65.354089 325.871529
-394.799728 -65.631044 325.901035
-392.819216 -65.907999 325.930540
-390.838705 -66.184955 325.960045
-388.858194 -66.461910 325.989550
-386.877682 -66.738865 326.019055
-384.897171 -67.015820 326.048560
-382.916660 -67.292776 326.078066
-380.936148 -67.569731 326.107571
-378.955637 -67.846686 326.137076
-376.975126 -68.123641 326.166581
-374.994614 -68.400596 326.196086
-373.014103 -68.677552 326.225591
-371.033592 -68.954507 326.255097
-369.053080 -69.231462 326.284602
-367.072569 -69.508417 326.314107
-365.092057 -69.785373 326.343612
-363.111546 -70.062328 326.373117
-361.131035 -70.339283 326.402622
-359.150523 -70.616238 326.432128
-357.170012 -70.893193 326.461633
-355.189501 -71.170149 326.491138
-353.208989 -71.447104 326.520643
-351.228478 -71.724059 326.550148
-349.247967 -72.001014 326.579654
-347.267455 -72.277970 326.609159
-345.286944 -72.554925 326.638664
-343.306432 -72.831880 326.668169
-341.325921 -73.108835 326.697674
-339.345410 -73.385790 326.727179
-337.364898 -73.662746 326.756685
-335.384387 -73.939701 326.786190
-333.403876 -74.216656 326.815695
-331.423364 -74.493611 326.845200
-329.442853 -74.770567 326.874705
-327.462342 -75.047522 326.904210
-325.481830 -75.324477 326.933716
-323.501319 -75.601432 326.963221
-321.520807 -75.878387 326.992726
-319.540296 -76.155343 327.022231
-317.559785 -76.432298 327.051736
-315.579273 -76.709253 327.081241
-313.598762 -76.986208 327.110747
-311.618251 -77.263164 327.140252
-309.637739 -77.540119 327.169757
-307.657228 -77.817074 327.199262
-305.676717 -78.094029 327.228767
-303.696205 -78.370984 327.258272
-301.715694 -78.647940 327.287778
-299.735183 -78.924895 327.317283
-297.754671 -79.201850 327.346788
-295.774160 -79.478805 327.376293
-293.793648 -79.755761 327.405798
-291.813137 -80.032716 327.435304
-289.832626 -80.309671 327.464809
-287.852114 -80.586626 327.494314
-285.871603 -80.863581 327.523819
-283.891092 -81.140537 327.553324
-281.910580 -81.417492 327.582829
-279.930069 -81.694447 327.612335
-277.949558 -81.971402 327.641840
-275.969046 -82.248358 327.671345
-273.988535 -82.525313 327.700850
-272.008023 -82.802268 327.730355
-270.027512 -83.079223 327.759860
-268.047001 -83.356178 327.789366
-266.066489 -83.633134 327.818871
-264.085978 -83.910089 327.848376
-262.105467 -84.187044 327.877881
-260.124955 -84.463999 327.907386
-258.144444 -84.740955 327.936891
-256.163933 -85.017910 327.966397
-254.183421 -85.294865 327.995902
-252.202910 -85.571820 328.025407
-250.222399 -85.848775 328.054912
-248.241887 -86.125731 328.084417
-246.261376 -86.402686 328.113922
-244.280864 -86.679641 328.143428
-242.300353 -86.956596 328.172933
-240.319842 -87.233552 328.202438
-238.339330 -87.510507 328.231943
-236.358819 -87.787462 328.261448
-234.378308 -88.064417 328.290954
-232.397796 -88.341372 328.320459
-230.417285 -88.618328 328.349964
-228.436774 -88.895283 328.379469
-226.456262 -89.172238 328.408974
-224.475751 -89.449193 328.438479
-222.495239 -89.726149 328.467985
-220.514728 -90.003104 328.497490
-218.534217 -90.280059 328.526995
-216.553705 -90.557014 328.556500
-214.573194 -90.833969 328.586005
-212.592683 -91.110925 328.615510
-210.612171 -91.387880 328.645016
-208.631660 -91.664835 328.674521
-206.651149 -91.941790 328.704026
-204.670637 -92.218746 328.733531
-202.690126 -92.495701 328.763036
-200.709614 -92.772656 328.792541
-198.729103 -93.049611 328.822047
-196.748592 -93.326566 328.851552
-194.768080 -93.603522 328.881057
-192.787569 -93.880477 328.910562
-190.807058 -94.157432 328.940067
-188.826546 -94.434387 328.969573
-186.846035 -94.711342 328.999078
-184.865524 -94.988298 329.028583
-182.885012 -95.265253 329.058088
-180.904501 -95.542208 329.087593
-178.923990 -95.819163 329.117098
-176.943478 -96.096119 329.146604
-174.962967 -96.373074 329.176109
-172.982455 -96.650029 329.205614
-171.001944 -96.926984 329.235119
-169.021433 -97.203939 329.264624
-167.040921 -97.480895 329.294129
-165.060410 -97.757850 329.323635
-163.079899 -98.034805 329.353140
-161.099387 -98.311760 329.382645
-159.118876 -98.588716 329.412150
-157.138365 -98.865671 329.441655
-155.157853 -99.142626 329.471160
-153.177342 -99.419581 329.500666
-151.196830 -99.696536 329.530171
-149.216319 -99.973492 329.559676
-147.235808 -100.250447 329.589181
-145.255296 -100.527402 329.618686
-143.274785 -100.804357 329.648191
-141.294274 -101.081313 329.677697
-139.313762 -101.358268 329.707202
-137.333251 -101.635223 329.736707
-135.352740 -101.912178 329.766212
-133.372228 -102.189133 329.795717
-131.391717 -102.466089 329.825223
-129.411205 -102.743044 329.854728
-127.430694 -103.019999 329.884233
-125.450183 -103.296954 329.913738
-123.469671 -103.573910 329.943243
-121.489160 -103.850865 329.972748
-119.508649 -104.127820 330.002254
-117.528137 -104.404775 330.031759
-115.547626 -104.681730 330.061264
-113.567115 -104.958686 330.090769
-111.586603 -105.235641 330.120274
-109.606092 -105.512596 330.149779
-107.625581 -105.789551 330.179285
-105.645069 -106.066507 330.208790
-103.664558 -106.343462 330.238295
-101.684046 -106.620417 330.267800
-99.703535 -106.897372 330.297305
-97.723024 -107.174327 330.326810
-95.742512 -107.451283 330.356316
-93.762001 -107.728238 330.385821
-91.781490 -108.005193 330.415326
-89.800978 -108.282148 330.444831
-87.820467 -108.559104 330.474336
-85.839956 -108.836059 330.503841
-83.859444 -109.113014 330.533347
-81.878933 -109.389969 330.562852
-79.898421 -109.666924 330.592357
-77.917910 -109.943880 330.621862
-75.937399 -110.220835 330.651367
-73.956887 -110.497790 330.680873
-71.976376 -110.774745 330.710378
-69.995865 -111.051701 330.739883
-68.015353 -111.328656 330.769388
-66.034842 -111.605611 330.798893
-64.054331 -111.882566 330.828398
-62.073819 -112.159521 330.857904
-60.093308 -112.436477 330.887409
-58.112797 -112.713432 330.916914
-56.132285 -112.990387 330.946419
-54.151774 -113.267342 330.975924
-52.171262 -113.544298 331.005429
-50.190751 -113.821253 331.034935
-48.210240 -114.098208 331.064440
-46.229728 -114.375163 331.093945
-44.249217 -114.652118 331.123450
-42.268706 -114.929074 331.152955
-40.288194 -115.206029 331.182460
-38.307683 -115.482984 331.211966
-36.327172 -115.759939 331.241471
-34.346660 -116.036895 331.270976
-32.366149 -116.313850 331.300481
-30.385637 -116.590805 331.329986
-28.405126 -116.867760 331.359491
-26.424615 -117.144715 331.388997
-24.444103 -117.421671 331.418502
-22.463592 -117.698626 331.448007
-20.483081 -117.975581 331.477512
-18.502569 -118.252536 331.507017
-16.522058 -118.529492 331.536523
-14.541547 -118.806447 331.566028
-12.561035 -119.083402 331.595533
-10.580524 -119.360357 331.625038
-8.600012 -119.637312 331.654543
-6.619501 -119.914268 331.684048
-4.638990 -120.191223 331.713554
-2.658478 -120.468178 331.743059
-0.677967 -120.745133 331.772564
1.302544 -121.022089 331.802069
3.283056 -121.299044 331.831574
5.263567 -121.575999 331.861079
7.244078 -121.852954 331.890585
9.224590 -122.129909 331.920090
11.205101 -122.406865 331.949595
14.588500 -122.880000 332.000000
14.588500 -122.880000 332.000000
16.398124 -123.731196 331.973041
18.207747 -124.582393 331.946081
20.017371 -125.433589 331.919122
21.826995 -126.284786 331.892163
23.636618 -127.135982 331.865203
25.446242 -127.987179 331.838244
27.255866 -128.838375 331.811285
29.065489 -129.689571 331.784325
30.875113 -130.540768 331.757366
32.684737 -131.391964 331.730407
34.494360 -132.243161 331.703447
36.303984 -133.094357 331.676488
38.113608 -133.945554 331.649528
39.923231 -134.796750 331.622569
41.732855 -135.647947 331.595610
43.542479 -136.499143 331.568650
45.352102 -137.350339 331.541691
47.161726 -138.201536 331.514732
48.971350 -139.052732 331.487772
50.780973 -139.903929 331.460813
52.590597 -140.755125 331.433854
54.400221 -141.606322 331.406894
56.209844 -142.457518 331.379935
58.019468 -143.308714 331.352976
59.829092 -144.159911 331.326016
61.638715 -145.011107 331.299057
63.448339 -145.862304 331.272098
65.257963 -146.713500 331.245138
67.067586 -147.564697 331.218179
68.877210 -148.415893 331.191220
70.686834 -149.267089 331.164260
72.496457 -150.118286 331.137301
74.306081 -150.969482 331.110342
76.115705 -151.820679 331.083382
77.925328 -152.671875 331.056423
79.734952 -153.523072 331.029464
81.544576 -154.374268 331.002504
83.354199 -155.225464 330.975545
85.163823 -156.076661 330.948585
86.973447 -156.927857 330.921626
88.783070 -157.779054 330.894667
90.592694 -158.630250 330.867707
92.402318 -159.481447 330.840748
94.211941 -160.332643 330.813789
96.021565 -161.183840 330.786829
97.831189 -162.035036 330.759870
99.640812 -162.886232 330.732911
101.450436 -163.737429 330.705951
103.260060 -164.588625 330.678992
105.069683 -165.439822 330.652033
106.879307 -166.291018 330.625073
108.688931 -167.142215 330.598114
110.498554 -167.993411 330.571155
112.308178 -168.844607 330.544195
114.117802 -169.695804 330.517236
115.927425 -170.547000 330.490277
117.737049 -171.398197 330.463317
119.546673 -172.249393 330.436358
121.356296 -173.100590 330.409399
123.165920 -173.951786 330.382439
124.975544 -174.802982 330.355480
126.785167 -175.654179 330.328521
128.594791 -176.505375 330.301561
130.404415 -177.356572 330.274602
132.214038 -178.207768 330.247642
134.023662 -179.058965 330.220683
135.833286 -179.910161 330.193724
137.642910 -180.761358 330.166764
139.452533 -181.612554 330.139805
141.262157 -182.463750 330.112846
143.071781 -183.314947 330.085886
144.881404 -184.166143 330.058927
146.691028 -185.017340 330.031968
148.500652 -185.868536 330.005008
150.310275 -186.719733 329.978049
152.119899 -187.570929 329.951090
153.929523 -188.422125 329.924130
155.739146 -189.273322 329.897171
157.548770 -190.124518 329.870212
159.358394 -190.975715 329.843252
161.168017 -191.826911 329.816293
162.977641 -192.678108 329.789334
164.787265 -193.529304 329.762374
166.596888 -194.380500 329.735415
168.406512 -195.231697 329.708456
170.216136 -196.082893 329.681496
172.025759 -196.934090 329.654537
173.835383 -197.785286 329.627578
175.645007 -198.636483 329.600618
177.454630 -199.487679 329.573659
179.264254 -200.338876 329.546699
181.073878 -201.190072 329.519740
182.883501 -202.041268 329.492781
184.693125 -202.892465 329.465821
186.502749 -203.743661 329.438862
188.312372 -204.594858 329.411903
190.121996 -205.446054 329.384943
191.931620 -206.297251 329.357984
193.741243 -207.148447 329.331025
195.550867 -207.999643 329.304065
197.360491 -208.850840 329.277106
199.170114 -209.702036 329.250147
200.979738 -210.553233 329.223187
202.789362 -211.404429 329.196228
204.598985 -212.255626 329.169269
206.408609 -213.106822 329.142309
208.218233 -213.958018 329.115350
210.027856 -214.809215 329.088391
211.837480 -215.660411 329.061431
213.647104 -216.511608 329.034472
215.456727 -217.362804 329.007513
217.266351 -218.214001 328.980553
219.075975 -219.065197 328.953594
220.885598 -219.916393 328.926634
222.695222 -220.767590 328.899675
224.504846 -221.618786 328.872716
226.314469 -222.469983 328.845756
228.124093 -223.321179 328.818797
229.933717 -224.172376 328.791838
231.743340 -225.023572 328.764878
233.552964 -225.874769 328.737919
235.362588 -226.725965 328.710960
237.172211 -227.577161 328.684000
238.981835 -228.428358 328.657041
240.791459 -229.279554 328.630082
242.601082 -230.130751 328.603122
244.410706 -230.981947 328.576163
246.220330 -231.833144 328.549204
248.029953 -232.684340 328.522244
249.839577 -233.535536 328.495285
251.649201 -234.386733 328.468326
253.458824 -235.237929 328.441366
255.268448 -236.089126 328.414407
257.078072 -236.940322 328.387448
258.887695 -237.791519 328.360488
260.697319 -238.642715 328.333529
262.506943 -239.493911 328.306570
264.316566 -240.345108 328.279610
266.126190 -241.196304 328.252651
267.935814 -242.047501 328.225691
269.745437 -242.898697 328.198732
271.555061 -243.749894 328.171773
273.364685 -244.601090 328.144813
275.174308 -245.452287 328.117854
276.983932 -246.303483 328.090895
278.793556 -247.154679 328.063935
280.603179 -248.005876 328.036976
282.412803 -248.857072 328.010017
284.222427 -249.708269 327.983057
286.032050 -250.559465 327.956098
287.841674 -251.410662 327.929139
289.651298 -252.261858 327.902179
291.460921 -253.113054 327.875220
293.270545 -253.964251 327.848261
295.080169 -254.815447 327.821301
296.889792 -255.666644 327.794342
298.699416 -256.517840 327.767383
300.509040 -257.369037 327.740423
302.318663 -258.220233 327.713464
304.128287 -259.071429 327.686505
305.937911 -259.922626 327.659545
307.747534 -260.773822 327.632586
309.557158 -261.625019 327.605627
311.366782 -262.476215 327.578667
313.176405 -263.327412 327.551708
314.986029 -264.178608 327.524748
316.795653 -265.029805 327.497789
318.605276 -265.881001 327.470830
320.414900 -266.732197 327.443870
322.224524 -267.583394 327.416911
324.034147 -268.434590 327.389952
325.843771 -269.285787 327.362992
327.653395 -270.136983 327.336033
329.463018 -270.988180 327.309074
331.272642 -271.839376 327.282114
333.082266 -272.690572 327.255155
334.891889 -273.541769 327.228196
336.701513 -274.392965 327.201236
338.511137 -275.244162 327.174277
340.320760 -276.095358 327.147318
342.130384 -276.946555 327.120358
343.940008 -277.797751 327.093399
345.749631 -278.648947 327.066440
347.559255 -279.500144 327.039480
349.368879 -280.351340 327.012521
351.178502 -281.202537 326.985562
352.988126 -282.053733 326.958602
354.797750 -282.904930 326.931643
356.607373 -283.756126 326.904684
358.416997 -284.607322 326.877724
360.226621 -285.458519 326.850765
362.036244 -286.309715 326.823805
363.845868 -287.160912 326.796846
365.655492 -288.012108 326.769887
367.465115 -288.863305 326.742927
369.274739 -289.714501 326.715968
371.084363 -290.565698 326.689009
372.893986 -291.416894 326.662049
374.703610 -292.268090 326.635090
376.513234 -293.119287 326.608131
378.322858 -293.970483 326.581171
380.132481 -294.821680 326.554212
381.942105 -295.672876 326.527253
383.751729 -296.524073 326.500293
385.561352 -297.375269 326.473334
387.370976 -298.226465 326.446375
389.180600 -299.077662 326.419415
390.990223 -299.928858 326.392456
392.799847 -300.780055 326.365497
394.609471 -301.631251 326.338537
396.419094 -302.482448 326.311578
398.228718 -303.333644 326.284619
400.038342 -304.184840 326.257659
401.847965 -305.036037 326.230700
403.657589 -305.887233 326.203740
405.467213 -306.738430 326.176781
407.276836 -307.589626 326.149822
409.086460 -308.440823 326.122862
410.896084 -309.292019 326.095903
412.705707 -310.143216 326.068944
414.515331 -310.994412 326.041984
416.324955 -311.845608 326.015025
418.134578 -312.696805 325.988066
419.944202 -313.548001 325.961106
421.753826 -314.399198 325.934147
423.563449 -315.250394 325.907188
425.373073 -316.101591 325.880228
427.182697 -316.952787 325.853269
428.992320 -317.803983 325.826310
430.801944 -318.655180 325.799350
432.611568 -319.506376 325.772391
434.421191 -320.357573 325.745432
436.230815 -321.208769 325.718472
438.040439 -322.059966 325.691513
439.850062 -322.911162 325.664554
441.659686 -323.762358 325.637594
443.469310 -324.613555 325.610635
445.278933 -325.464751 325.583676
447.088557 -326.315948 325.556716
448.898181 -327.167144 325.529757
450.707804 -328.018341 325.502797
452.517428 -328.869537 325.475838
454.327052 -329.720734 325.448879
456.136675 -330.571930 325.421919
457.946299 -331.423126 325.394960
459.755923 -332.274323 325.368001
461.565546 -333.125519 325.341041
463.375170 -333.976716 325.314082
465.184794 -334.827912 325.287123
466.994417 -335.679109 325.260163
468.804041 -336.530305 325.233204
470.613665 -337.381501 325.206245
472.423288 -338.232698 325.179285
474.232912 -339.083894 325.152326
476.042536 -339.935091 325.125367
477.852159 -340.786287 325.098407
479.661783 -341.637484 325.071448
481.471407 -342.488680 325.044489
483.281030 -343.339876 325.017529
485.090654 -344.191073 324.990570
486.900278 -345.042269 324.963611
488.709901 -345.893466 324.936651
490.519525 -346.744662 324.909692
492.329149 -347.595859 324.882733
494.138772 -348.447055 324.855773
495.948396 -349.298251 324.828814
497.758020 -350.149448 324.801854
499.567643 -351.000644 324.774895
501.377267 -351.851841 324.747936
503.186891 -352.703037 324.720976
504.996514 -353.554234 324.694017
506.806138 -354.405430 324.667058
508.615762 -355.256627 324.640098
510.425385 -356.107823 324.613139
512.235009 -356.959019 324.586180
514.044633 -357.810216 324.559220
515.854256 -358.661412 324.532261
517.663880 -359.512609 324.505302
519.473504 -360.363805 324.478342
521.283127 -361.215002 324.451383
523.092751 -362.066198 324.424424
524.902375 -362.917394 324.397464
526.711998 -363.768591 324.370505
528.521622 -364.619787 324.343546
530.331246 -365.470984 324.316586
532.140869 -366.322180 324.289627
533.950493 -367.173377 324.262668
535.760117 -368.024573 324.235708
537.569740 -368.875769 324.208749
539.379364 -369.726966 324.181790
541.188988 -370.578162 324.154830
542.998611 -371.429359 324.127871
544.808235 -372.280555 324.100911
546.617859 -373.131752 324.073952
548.427482 -373.982948 324.046993
550.237106 -374.834145 324.020033
552.046730 -375.685341 323.993074
553.856353 -376.536537 323.966115
555.665977 -377.387734 323.939155
557.475601 -378.238930 323.912196
559.285224 -379.090127 323.885237
561.094848 -379.941323 323.858277
562.904472 -380.792520 323.831318
564.714095 -381.643716 323.804359
566.523719 -382.494912 323.777399
568.333343 -383.346109 323.750440
570.142966 -384.197305 323.723481
571.952590 -385.048502 323.696521
573.762214 -385.899698 323.669562
575.571837 -386.750895 323.642603
577.381461 -387.602091 323.615643
579.191085 -388.453287 323.588684
581.000708 -389.304484 323.561725
582.810332 -390.155680 323.534765
584.619956 -391.006877 323.507806
586.429579 -391.858073 323.480846
588.239203 -392.709270 323.453887
590.048827 -393.560466 323.426928
591.858450 -394.411663 323.399968
593.668074 -395.262859 323.373009
595.477698 -396.114055 323.346050
597.287321 -396.965252 323.319090
599.096945 -397.816448 323.292131
600.906569 -398.667645 323.265172
602.716192 -399.518841 323.238212
604.525816 -400.370038 323.211253
606.335440 -401.221234 323.184294
608.145063 -402.072430 323.157334
609.954687 -402.923627 323.130375
611.764311 -403.774823 323.103416
613.573934 -404.626020 323.076456
615.383558 -405.477216 323.049497
617.193182 -406.328413 323.022538
619.002806 -407.179609 322.995578
620.812429 -408.030805 322.968619
622.622053 -408.882002 322.941660
624.431677 -409.733198 322.914700
626.241300 -410.584395 322.887741
628.050924 -411.435591 322.860782
629.860548 -412.286788 322.833822
631.670171 -413.137984 322.806863
633.479795 -413.989180 322.779903
635.289419 -414.840377 322.752944
637.099042 -415.691573 322.725985
638.908666 -416.542770 322.699025
640.718290 -417.393966 322.672066
642.527913 -418.245163 322.645107
644.337537 -419.096359 322.618147
646.147161 -419.947556 322.591188
647.956784 -420.798752 322.564229
649.766408 -421.649948 322.537269
651.576032 -422.501145 322.510310
653.385655 -423.352341 322.483351
655.195279 -424.203538 322.456391
657.004903 -425.054734 322.429432
658.814526 -425.905931 322.402473
660.624150 -426.757127 322.375513
662.433774 -427.608323 322.348554
664.243397 -428.459520 322.321595
666.053021 -429.310716 322.294635
667.862645 -430.161913 322.267676
669.672268 -431.013109 322.240717
671.481892 -431.864306 322.213757
673.291516 -432.715502 322.186798
675.101139 -433.566698 322.159839
676.910763 -434.417895 322.132879
678.720387 -435.269091 322.105920
680.530010 -436.120288 322.078960
682.339634 -436.971484 322.052001
684.149258 -437.822681 322.025042
685.958881 -438.673877 321.998082
687.768505 -439.525074 321.971123
689.578129 -440.376270 321.944164
691.387752 -441.227466 321.917204
693.197376 -442.078663 321.890245
695.007000 -442.929859 321.863286
696.816623 -443.781056 321.836326
698.626247 -444.632252 321.809367
700.435871 -445.483449 321.782408
702.245494 -446.334645 321.755448
704.055118 -447.185841 321.728489
705.864742 -448.037038 321.701530
707.674365 -448.888234 321.674570
709.483989 -449.739431 321.647611
711.293613 -450.590627 321.620652
713.103236 -451.441824 321.593692
714.912860 -452.293020 321.566733
716.722484 -453.144216 321.539774
718.532107 -453.995413 321.512814
720.341731 -454.846609 321.485855
722.151355 -455.697806 321.458896
723.960978 -456.549002 321.431936
725.770602 -457.400199 321.404977
727.580226 -458.251395 321.378017
729.389849 -459.102592 321.351058
731.199473 -459.953788 321.324099
733.009097 -460.804984 321.297139
734.818720 -461.656181 321.270180
736.628344 -462.507377 321.243221
738.437968 -463.358574 321.216261
740.247591 -464.209770 321.189302
742.057215 -465.060967 321.162343
743.866839 -465.912163 321.135383
745.676462 -466.763359 321.108424
747.486086 -467.614556 321.081465
749.295710 -468.465752 321.054505
751.105333 -469.316949 321.027546
752.914957 -470.168145 321.000587
754.724581 -471.019342 320.973627
756.534204 -471.870538 320.946668
758.343828 -472.721734 320.919709
760.153452 -473.572931 320.892749
761.963075 -474.424127 320.865790
763.772699 -475.275324 320.838831
765.582323 -476.126520 320.811871
767.391946 -476.977717 320.784912
769.201570 -477.828913 320.757953
771.011194 -478.680109 320.730993
772.820817 -479.531306 320.704034
774.630441 -480.382502 320.677074
776.440065 -481.233699 320.650115
778.249688 -482.084895 320.623156
780.059312 -482.936092 320.596196
781.868936 -483.787288 320.569237
783.678559 -484.638485 320.542278
785.488183 -485.489681 320.515318
787.297807 -486.340877 320.488359
789.107430 -487.192074 320.461400
790.917054 -488.043270 320.434440
792.726678 -488.894467 320.407481
794.536301 -489.745663 320.380522
796.345925 -490.596860 320.353562
798.155549 -491.448056 320.326603
799.965172 -492.299252 320.299644
801.774796 -493.150449 320.272684
803.584420 -494.001645 320.245725
805.394043 -494.852842 320.218766
807.203667 -495.704038 320.191806
809.013291 -496.555235 320.164847
810.822914 -497.406431 320.137888
812.632538 -498.257627 320.110928
814.442162 -499.108824 320.083969
816.251785 -499.960020 320.057009
818.061409 -500.811217 320.030050
820.078500 -501.760000 320.000000
820.078500 -501.760000 320.000000
822.076100 -501.760000 319.902042
824.073699 -501.760000 319.804085
826.071299 -501.760000 319.706127
828.068899 -501.760000 319.608170
830.066498 -501.760000 319.510212
832.064098 -501.760000 319.412255
834.061697 -501.760000 319.314297
836.059297 -501.760000 319.216339
838.056897 -501.760000 319.118382
840.471000 -501.760000 319.000000
840.471000 -501.760000 319.000000
840.471000 -499.760000 319.000000
840.471000 -497.760000 319.000000
840.471000 -495.760000 319.000000
840.471000 -493.760000 319.000000
840.471000 -491.760000 319.000000
840.471000 -489.760000 319.000000
840.471000 -487.760000 319.000000
840.471000 -485.760000 319.000000
840.471000 -483.760000 319.000000
840.471000 -481.760000 319.000000
840.471000 -479.760000 319.000000
840.471000 -477.760000 319.000000
840.471000 -475.760000 319.000000
840.471000 -473.760000 319.000000
840.471000 -471.760000 319.000000
840.471000 -469.760000 319.000000
840.471000 -467.760000 319.000000
840.471000 -465.760000 319.000000
840.471000 -463.760000 319.000000
840.471000 -461.760000 319.000000
840.471000 -459.760000 319.000000
840.471000 -457.760000 319.000000
840.471000 -455.760000 319.000000
840.471000 -453.760000 319.000000
840.471000 -451.760000 319.000000
840.471000 -449.760000 319.000000
840.471000 -447.760000 319.000000
840.471000 -445.760000 319.000000
840.471000 -443.760000 319.000000
840.471000 -441.760000 319.000000
840.471000 -439.760000 319.000000
840.471000 -437.760000 319.000000
840.471000 -435.760000 319.000000
840.471000 -433.760000 319.000000
840.471000 -431.760000 319.000000
840.471000 -429.760000 319.000000
840.471000 -427.760000 319.000000
840.471000 -425.760000 319.000000
840.471000 -423.760000 319.000000
840.471000 -421.760000 319.000000
840.471000 -419.760000 319.000000
840.471000 -417.760000 319.000000
840.471000 -415.760000 319.000000
840.471000 -413.760000 319.000000
840.471000 -411.760000 319.000000
840.471000 -409.760000 319.000000
840.471000 -407.760000 319.000000
840.471000 -405.760000 319.000000
840.471000 -403.760000 319.000000
840.471000 -401.760000 319.000000
840.471000 -399.760000 319.000000
840.471000 -397.760000 319.000000
840.471000 -395.760000 319.000000
840.471000 -393.760000 319.000000
840.471000 -391.760000 319.000000
840.471000 -389.760000 319.000000
840.471000 -387.760000 319.000000
840.471000 -385.760000 319.000000
840.471000 -383.760000 319.000000
840.471000 -381.760000 319.000000
840.471000 -379.760000 319.000000
840.471000 -377.760000 319.000000
840.471000 -375.760000 319.000000
840.471000 -373.760000 319.000000
840.471000 -371.760000 319.000000
840.471000 -369.760000 319.000000
840.471000 -367.760000 319.000000
840.471000 -365.760000 319.000000
840.471000 -363.760000 319.000000
840.471000 -361.760000 319.000000
840.471000 -359.760000 319.000000
840.471000 -357.760000 319.000000
840.471000 -355.760000 319.000000
840.471000 -353.760000 319.000000
840.471000 -351.760000 319.000000
840.471000 -349.760000 319.000000
840.471000 -347.760000 319.000000
840.471000 -345.760000 319.000000
840.471000 -343.760000 319.000000
840.471000 -341.760000 319.000000
840.471000 -339.760000 319.000000
840.471000 -337.760000 319.000000
840.471000 -335.760000 319.000000
840.471000 -333.760000 319.000000
840.471000 -331.760000 319.000000
840.471000 -329.760000 319.000000
840.471000 -327.760000 319.000000
840.471000 -325.760000 319.000000
840.471000 -323.760000 319.000000
840.471000 -321.760000 319.000000
840.471000 -319.760000 319.000000
840.471000 -317.760000 319.000000
840.471000 -315.760000 319.000000
840.471000 -313.760000 319.000000
840.471000 -311.760000 319.000000
840.471000 -309.760000 319.000000
840.471000 -307.760000 319.000000
840.471000 -305.760000 319.000000
840.471000 -303.760000 319.000000
840.471000 -301.760000 319.000000
840.471000 -299.760000 319.000000
840.471000 -297.760000 319.000000
840.471000 -295.760000 319.000000
840.471000 -293.760000 319.000000
840.471000 -291.760000 319.000000
840.471000 -289.760000 319.000000
840.471000 -287.760000 319.000000
840.471000 -285.760000 319.000000
840.471000 -283.760000 319.000000
840.471000 -281.760000 319.000000
840.471000 -279.760000 319.000000
840.471000 -277.760000 319.000000
840.471000 -275.760000 319.000000
840.471000 -273.760000 319.000000
840.471000 -271.760000 319.000000
840.471000 -269.760000 319.000000
840.471000 -267.760000 319.000000
840.471000 -265.760000 319.000000
840.471000 -263.760000 319.000000
840.471000 -261.760000 319.000000
840.471000 -259.760000 319.000000
840.471000 -256.000000 319.000000
840.471000 -256.000000 319.000000
838.473400 -256.000000 318.902042
836.475801 -256.000000 318.804085
834.478201 -256.000000 318.706127
832.480601 -256.000000 318.608170
830.483002 -256.000000 318.510212
828.485402 -256.000000 318.412255
826.487803 -256.000000 318.314297
824.490203 -256.000000 318.216339
822.492603 -256.000000 318.118382
820.078500 -256.000000 318.000000
820.078500 -256.000000 318.000000
818.101374 -256.301617 318.000000
816.124248 -256.603233 318.000000
814.147122 -256.904850 318.000000
812.169996 -257.206466 318.000000
810.192870 -257.508083 318.000000
808.215744 -257.809700 318.000000
806.238618 -258.111316 318.000000
804.261492 -258.412933 318.000000
802.284366 -258.714550 318.000000
800.307240 -259.016166 318.000000
798.330113 -259.317783 318.000000
796.352987 -259.619399 318.000000
794.375861 -259.921016 318.000000
792.398735 -260.222633 318.000000
790.421609 -260.524249 318.000000
788.444483 -260.825866 318.000000
786.467357 -261.127483 318.000000
784.490231 -261.429099 318.000000
782.513105 -261.730716 318.000000
780.535979 -262.032332 318.000000
778.558853 -262.333949 318.000000
776.581727 -262.635566 318.000000
774.604601 -262.937182 318.000000
772.627475 -263.238799 318.000000
770.650349 -263.540416 318.000000
768.673223 -263.842032 318.000000
766.696097 -264.143649 318.000000
764.718971 -264.445265 318.000000
762.741845 -264.746882 318.000000
760.764719 -265.048499 318.000000
758.787592 -265.350115 318.000000
756.810466 -265.651732 318.000000
754.833340 -265.953349 318.000000
752.856214 -266.254965 318.000000
750.879088 -266.556582 318.000000
748.901962 -266.858198 318.000000
746.924836 -267.159815 318.000000
744.947710 -267.461432 318.000000
742.970584 -267.763048 318.000000
740.993458 -268.064665 318.000000
739.016332 -268.366282 318.000000
737.039206 -268.667898 318.000000
735.062080 -268.969515 318.000000
733.084954 -269.271131 318.000000
731.107828 -269.572748 318.000000
729.130702 -269.874365 318.000000
727.153576 -270.175981 318.000000
725.176450 -270.477598 318.000000
723.199324 -270.779215 318.000000
721.222198 -271.080831 318.000000
719.245072 -271.382448 318.000000
717.267945 -271.684064 318.000000
715.290819 -271.985681 318.000000
713.313693 -272.287298 318.000000
711.336567 -272.588914 318.000000
709.359441 -272.890531 318.000000
707.382315 -273.192147 318.000000
705.405189 -273.493764 318.000000
703.428063 -273.795381 318.000000
701.450937 -274.096997 318.000000
699.473811 -274.398614 318.000000
697.496685 -274.700231 318.000000
695.519559 -275.001847 318.000000
693.542433 -275.303464 318.000000
691.565307 -275.605080 318.000000
689.588181 -275.906697 318.000000
687.611055 -276.208314 318.000000
685.633929 -276.509930 318.000000
683.656803 -276.811547 318.000000
681.679677 -277.113164 318.000000
679.702551 -277.414780 318.000000
677.725424 -277.716397 318.000000
675.748298 -278.018013 318.000000
673.771172 -278.319630 318.000000
671.794046 -278.621247 318.000000
669.816920 -278.922863 318.000000
667.839794 -279.224480 318.000000
665.862668 -279.526097 318.000000
663.885542 -279.827713 318.000000
661.908416 -280.129330 318.000000
659.931290 -280.430946 318.000000
657.954164 -280.732563 318.000000
655.977038 -281.034180 318.000000
653.999912 -281.335796 318.000000
652.022786 -281.637413 318.000000
650.045660 -281.939030 318.000000
648.068534 -282.240646 318.000000
646.091408 -282.542263 318.000000
644.114282 -282.843879 318.000000
642.137156 -283.145496 318.000000
640.160030 -283.447113 318.000000
638.182904 -283.748729 318.000000
636.205777 -284.050346 318.000000
634.228651 -284.351963 318.000000
632.251525 -284.653579 318.000000
630.274399 -284.955196 318.000000
628.297273 -285.256812 318.000000
626.320147 -285.558429 318.000000
624.343021 -285.860046 318.000000
622.365895 -286.161662 318.000000
620.388769 -286.463279 318.000000
618.411643 -286.764896 318.000000
616.434517 -287.066512 318.000000
614.457391 -287.368129 318.000000
612.480265 -287.669745 318.000000
610.503139 -287.971362 318.000000
608.526013 -288.272979 318.000000
606.548887 -288.574595 318.000000
604.571761 -288.876212 318.000000
602.594635 -289.177829 318.000000
600.617509 -289.479445 318.000000
598.640383 -289.781062 318.000000
596.663256 -290.082678 318.000000
594.686130 -290.384295 318.000000
592.709004 -290.685912 318.000000
590.731878 -290.987528 318.000000
588.754752 -291.289145 318.000000
586.777626 -291.590761 318.000000
584.800500 -291.892378 318.000000
582.823374 -292.193995 318.000000
580.846248 -292.495611 318.000000
578.869122 -292.797228 318.000000
576.891996 -293.098845 318.000000
574.914870 -293.400461 318.000000
572.937744 -293.702078 318.000000
570.960618 -294.003694 318.000000
568.983492 -294.305311 318.000000
567.006366 -294.606928 318.000000
565.029240 -294.908544 318.000000
563.052114 -295.210161 318.000000
561.074988 -295.511778 318.000000
559.097862 -295.813394 318.000000
557.120736 -296.115011 318.000000
555.143609 -296.416627 318.000000
553.166483 -296.718244 318.000000
551.189357 -297.019861 318.000000
549.212231 -297.321477 318.000000
547.235105 -297.623094 318.000000
545.257979 -297.924711 318.000000
543.280853 -298.226327 318.000000
541.303727 -298.527944 318.000000
539.326601 -298.829560 318.000000
537.349475 -299.131177 318.000000
535.372349 -299.432794 318.000000
533.395223 -299.734410 318.000000
531.418097 -300.036027 318.000000
529.440971 -300.337644 318.000000
527.463845 -300.639260 318.000000
525.486719 -300.940877 318.000000
523.509593 -301.242493 318.000000
521.532467 -301.544110 318.000000
519.555341 -301.845727 318.000000
517.578215 -302.147343 318.000000
515.601088 -302.448960 318.000000
513.623962 -302.750577 318.000000
511.646836 -303.052193 318.000000
509.669710 -303.353810 318.000000
507.692584 -303.655426 318.000000
505.715458 -303.957043 318.000000
503.738332 -304.258660 318.000000
501.761206 -304.560276 318.000000
499.784080 -304.861893 318.000000
497.806954 -305.163510 318.000000
495.829828 -305.465126 318.000000
493.852702 -305.766743 318.000000
491.875576 -306.068359 318.000000
489.898450 -306.369976 318.000000
487.921324 -306.671593 318.000000
485.944198 -306.973209 318.000000
483.967072 -307.274826 318.000000
481.989946 -307.576442 318.000000
480.012820 -307.878059 318.000000
478.035694 -308.179676 318.000000
476.058568 -308.481292 318.000000
474.081441 -308.782909 318.000000
472.104315 -309.084526 318.000000
470.127189 -309.386142 318.000000
468.150063 -309.687759 318.000000
466.172937 -309.989375 318.000000
464.195811 -310.290992 318.000000
462.218685 -310.592609 318.000000
460.241559 -310.894225 318.000000
458.264433 -311.195842 318.000000
456.287307 -311.497459 318.000000
454.310181 -311.799075 318.000000
452.333055 -312.100692 318.000000
450.355929 -312.402308 318.000000
448.378803 -312.703925 318.000000
446.401677 -313.005542 318.000000
444.424551 -313.307158 318.000000
442.447425 -313.608775 318.000000
440.470299 -313.910392 318.000000
438.493173 -314.212008 318.000000
436.516047 -314.513625 318.000000
434.538920 -314.815241 318.000000
432.561794 -315.116858 318.000000
430.584668 -315.418475 318.000000
428.607542 -315.720091 318.000000
426.630416 -316.021708 318.000000
424.653290 -316.323325 318.000000
422.676164 -316.624941 318.000000
420.699038 -316.926558 318.000000
418.721912 -317.228174 318.000000
416.744786 -317.529791 318.000000
414.767660 -317.831408 318.000000
412.790534 -318.133024 318.000000
410.813408 -318.434641 318.000000
408.836282 -318.736258 318.000000
406.859156 -319.037874 318.000000
404.882030 -319.339491 318.000000
402.904904 -319.641107 318.000000
400.927778 -319.942724 318.000000
398.950652 -320.244341 318.000000
396.973526 -320.545957 318.000000
394.996400 -320.847574 318.000000
393.019273 -321.149191 318.000000
391.042147 -321.450807 318.000000
389.065021 -321.752424 318.000000
387.087895 -322.054040 318.000000
385.110769 -322.355657 318.000000
383.133643 -322.657274 318.000000
381.156517 -322.958890 318.000000
379.179391 -323.260507 318.000000
377.202265 -323.562123 318.000000
375.225139 -323.863740 318.000000
373.248013 -324.165357 318.000000
371.270887 -324.466973 318.000000
369.293761 -324.768590 318.000000
367.316635 -325.070207 318.000000
365.339509 -325.371823 318.000000
363.362383 -325.673440 318.000000
361.385257 -325.975056 318.000000
359.408131 -326.276673 318.000000
357.431005 -326.578290 318.000000
355.453879 -326.879906 318.000000
353.476752 -327.181523 318.000000
351.499626 -327.483140 318.000000
349.522500 -327.784756 318.000000
347.545374 -328.086373 318.000000
345.568248 -328.387989 318.000000
343.591122 -328.689606 318.000000
341.613996 -328.991223 318.000000
339.636870 -329.292839 318.000000
337.659744 -329.594456 318.000000
335.682618 -329.896073 318.000000
333.705492 -330.197689 318.000000
331.728366 -330.499306 318.000000
329.751240 -330.800922 318.000000
327.774114 -331.102539 318.000000
325.796988 -331.404156 318.000000
323.819862 -331.705772 318.000000
321.842736 -332.007389 318.000000
319.865610 -332.309006 318.000000
317.888484 -332.610622 318.000000
315.911358 -332.912239 318.000000
313.934232 -333.213855 318.000000
311.957105 -333.515472 318.000000
309.979979 -333.817089 318.000000
308.002853 -334.118705 318.000000
306.025727 -334.420322 318.000000
304.048601 -334.721939 318.000000
302.071475 -335.023555 318.000000
300.094349 -335.325172 318.000000
298.117223 -335.626788 318.000000
296.140097 -335.928405 318.000000
294.162971 -336.230022 318.000000
292.185845 -336.531638 318.000000
290.208719 -336.833255 318.000000
288.231593 -337.134872 318.000000
286.254467 -337.436488 318.000000
284.277341 -337.738105 318.000000
282.300215 -338.039721 318.000000
280.323089 -338.341338 318.000000
278.345963 -338.642955 318.000000
276.368837 -338.944571 318.000000
274.391711 -339.246188 318.000000
272.414584 -339.547805 318.000000
270.437458 -339.849421 318.000000
268.460332 -340.151038 318.000000
266.483206 -340.452654 318.000000
264.506080 -340.754271 318.000000
262.528954 -341.055888 318.000000
260.551828 -341.357504 318.000000
258.574702 -341.659121 318.000000
256.597576 -341.960737 318.000000
254.620450 -342.262354 318.000000
252.643324 -342.563971 318.000000
250.666198 -342.865587 318.000000
248.689072 -343.167204 318.000000
246.711946 -343.468821 318.000000
244.734820 -343.770437 318.000000
242.757694 -344.072054 318.000000
240.780568 -344.373670 318.000000
238.803442 -344.675287 318.000000
236.826316 -344.976904 318.000000
234.849190 -345.278520 318.000000
232.872064 -345.580137 318.000000
230.894937 -345.881754 318.000000
228.917811 -346.183370 318.000000
226.940685 -346.484987 318.000000
224.963559 -346.786603 318.000000
222.986433 -347.088220 318.000000
221.009307 -347.389837 318.000000
219.032181 -347.691453 318.000000
217.055055 -347.993070 318.000000
215.077929 -348.294687 318.000000
213.100803 -348.596303 318.000000
211.123677 -348.897920 318.000000
209.146551 -349.199536 318.000000
207.169425 -349.501153 318.000000
205.192299 -349.802770 318.000000
203.215173 -350.104386 318.000000
201.238047 -350.406003 318.000000
199.260921 -350.707620 318.000000
197.283795 -351.009236 318.000000
195.306669 -351.310853 318.000000
193.329543 -351.612469 318.000000
191.352416 -351.914086 318.000000
189.375290 -352.215703 318.000000
187.398164 -352.517319 318.000000
185.421038 -352.818936 318.000000
183.443912 -353.120553 318.000000
181.466786 -353.422169 318.000000
179.489660 -353.723786 318.000000
177.512534 -354.025402 318.000000
175.535408 -354.327019 318.000000
173.558282 -354.628636 318.000000
171.581156 -354.930252 318.000000
169.604030 -355.231869 318.000000
167.626904 -355.533486 318.000000
165.649778 -355.835102 318.000000
163.672652 -356.136719 318.000000
161.695526 -356.438335 318.000000
159.718400 -356.739952 318.000000
157.741274 -357.041569 318.000000
155.764148 -357.343185 318.000000
153.787022 -357.644802 318.000000
151.809896 -357.946418 318.000000
149.832769 -358.248035 318.000000
147.855643 -358.549652 318.000000
145.878517 -358.851268 318.000000
143.901391 -359.152885 318.000000
141.924265 -359.454502 318.000000
139.947139 -359.756118 318.000000
137.970013 -360.057735 318.000000
135.992887 -360.359351 318.000000
134.015761 -360.660968 318.000000
132.038635 -360.962585 318.000000
130.061509 -361.264201 318.000000
128.084383 -361.565818 318.000000
126.107257 -361.867435 318.000000
124.130131 -362.169051 318.000000
122.153005 -362.470668 318.000000
120.175879 -362.772284 318.000000
118.198753 -363.073901 318.000000
116.221627 -363.375518 318.000000
114.244501 -363.677134 318.000000
112.267375 -363.978751 318.000000
110.290248 -364.280368 318.000000
108.313122 -364.581984 318.000000
106.335996 -364.883601 318.000000
104.358870 -365.185217 318.000000
102.381744 -365.486834 318.000000
100.404618 -365.788451 318.000000
98.427492 -366.090067 318.000000
96.450366 -366.391684 318.000000
94.473240 -366.693301 318.000000
92.496114 -366.994917 318.000000
90.518988 -367.296534 318.000000
88.541862 -367.598150 318.000000
86.564736 -367.899767 318.000000
84.587610 -368.201384 318.000000
82.610484 -368.503000 318.000000
80.633358 -368.804617 318.000000
78.656232 -369.106234 318.000000
76.679106 -369.407850 318.000000
74.701980 -369.709467 318.000000
72.724854 -370.011083 318.000000
70.747728 -370.312700 318.000000
68.770601 -370.614317 318.000000
66.793475 -370.915933 318.000000
64.816349 -371.217550 318.000000
62.839223 -371.519167 318.000000
60.862097 -371.820783 318.000000
58.884971 -372.122400 318.000000
56.907845 -372.424016 318.000000
54.930719 -372.725633 318.000000
52.953593 -373.027250 318.000000
50.976467 -373.328866 318.000000
48.999341 -373.630483 318.000000
47.022215 -373.932100 318.000000
45.045089 -374.233716 318.000000
43.067963 -374.535333 318.000000
41.090837 -374.836949 318.000000
39.113711 -375.138566 318.000000
37.136585 -375.440183 318.000000
35.159459 -375.741799 318.000000
33.182333 -376.043416 318.000000
31.205207 -376.345032 318.000000
29.228080 -376.646649 318.000000
27.250954 -376.948266 318.000000
25.273828 -377.249882 318.000000
23.296702 -377.551499 318.000000
21.319576 -377.853116 318.000000
19.342450 -378.154732 318.000000
17.365324 -378.456349 318.000000
15.388198 -378.757965 318.000000
13.411072 -379.059582 318.000000
11.433946 -379.361199 318.000000
9.456820 -379.662815 318.000000
7.479694 -379.964432 318.000000
5.502568 -380.266049 318.000000
3.525442 -380.567665 318.000000
1.548316 -380.869282 318.000000
-0.428810 -381.170898 318.000000
-2.405936 -381.472515 318.000000
-4.383062 -381.774132 318.000000
-6.360188 -382.075748 318.000000
-8.337314 -382.377365 318.000000
-10.314440 -382.678982 318.000000
-12.291567 -382.980598 318.000000
-14.268693 -383.282215 318.000000
-16.245819 -383.583831 318.000000
-18.222945 -383.885448 318.000000
-20.200071 -384.187065 318.000000
-22.177197 -384.488681 318.000000
-24.154323 -384.790298 318.000000
-26.131449 -385.091915 318.000000
-28.108575 -385.393531 318.000000
-30.085701 -385.695148 318.000000
-32.062827 -385.996764 318.000000
-34.039953 -386.298381 318.000000
-36.017079 -386.599998 318.000000
-37.994205 -386.901614 318.000000
-39.971331 -387.203231 318.000000
-41.948457 -387.504848 318.000000
-43.925583 -387.806464 318.000000
-45.902709 -388.108081 318.000000
-47.879835 -388.409697 318.000000
-49.856961 -388.711314 318.000000
-51.834088 -389.012931 318.000000
-53.811214 -389.314547 318.000000
-55.788340 -389.616164 318.000000
-57.765466 -389.917781 318.000000
-59.742592 -390.219397 318.000000
-61.719718 -390.521014 318.000000
-63.696844 -390.822630 318.000000
-65.673970 -391.124247 318.000000
-67.651096 -391.425864 318.000000
-69.628222 -391.727480 318.000000
-71.605348 -392.029097 318.000000
-73.582474 -392.330713 318.000000
-75.559600 -392.632330 318.000000
-77.536726 -392.933947 318.000000
-79.513852 -393.235563 318.000000
-81.490978 -393.537180 318.000000
-83.468104 -393.838797 318.000000
-85.445230 -394.140413 318.000000
-87.422356 -394.442030 318.000000
-89.399482 -394.743646 318.000000
-91.376608 -395.045263 318.000000
-93.353735 -395.346880 318.000000
-95.330861 -395.648496 318.000000
-97.307987 -395.950113 318.000000
-99.285113 -396.251730 318.000000
-101.262239 -396.553346 318.000000
-103.239365 -396.854963 318.000000
-105.216491 -397.156579 318.000000
-107.193617 -397.458196 318.000000
-109.170743 -397.759813 318.000000
-111.147869 -398.061429 318.000000
-113.124995 -398.363046 318.000000
-115.102121 -398.664663 318.000000
-117.079247 -398.966279 318.000000
-119.056373 -399.267896 318.000000
-121.033499 -399.569512 318.000000
-123.010625 -399.871129 318.000000
-124.987751 -400.172746 318.000000
-126.964877 -400.474362 318.000000
-128.942003 -400.775979 318.000000
-130.919129 -401.077596 318.000000
-132.896256 -401.379212 318.000000
-134.873382 -401.680829 318.000000
-136.850508 -401.982445 318.000000
-138.827634 -402.284062 318.000000
-140.804760 -402.585679 318.000000
-142.781886 -402.887295 318.000000
-144.759012 -403.188912 318.000000
-146.736138 -403.490529 318.000000
-148.713264 -403.792145 318.000000
-150.690390 -404.093762 318.000000
-152.667516 -404.395378 318.000000
-154.644642 -404.696995 318.000000
-156.621768 -404.998612 318.000000
-158.598894 -405.300228 318.000000
-160.576020 -405.601845 318.000000
-162.553146 -405.903462 318.000000
-164.530272 -406.205078 318.000000
-166.507398 -406.506695 318.000000
-168.484524 -406.808311 318.000000
-170.461650 -407.109928 318.000000
-172.438777 -407.411545 318.000000
-174.415903 -407.713161 318.000000
-176.393029 -408.014778 318.000000
-178.370155 -408.316394 318.000000
-180.347281 -408.618011 318.000000
-182.324407 -408.919628 318.000000
-184.301533 -409.221244 318.000000
-186.278659 -409.522861 318.000000
-188.255785 -409.824478 318.000000
-190.232911 -410.126094 318.000000
-192.210037 -410.427711 318.000000
-194.187163 -410.729327 318.000000
-196.164289 -411.030944 318.000000
-198.141415 -411.332561 318.000000
-200.118541 -411.634177 318.000000
-202.095667 -411.935794 318.000000
-204.072793 -412.237411 318.000000
-206.049919 -412.539027 318.000000
-208.027045 -412.840644 318.000000
-210.004171 -413.142260 318.000000
-211.981297 -413.443877 318.000000
-213.958424 -413.745494 318.000000
-215.935550 -414.047110 318.000000
-217.912676 -414.348727 318.000000
-219.889802 -414.650344 318.000000
-221.866928 -414.951960 318.000000
-223.844054 -415.253577 318.000000
-225.821180 -415.555193 318.000000
-227.798306 -415.856810 318.000000
-229.775432 -416.158427 318.000000
-231.752558 -416.460043 318.000000
-233.729684 -416.761660 318.000000
-235.706810 -417.063277 318.000000
-237.683936 -417.364893 318.000000
-239.661062 -417.666510 318.000000
-241.638188 -417.968126 318.000000
-243.615314 -418.269743 318.000000
-245.592440 -418.571360 318.000000
-247.569566 -418.872976 318.000000
-249.546692 -419.174593 318.000000
-251.523818 -419.476210 318.000000
-253.500945 -419.777826 318.000000
-255.478071 -420.079443 318.000000
-257.455197 -420.381059 318.000000
-259.432323 -420.682676 318.000000
-261.409449 -420.984293 318.000000
-263.386575 -421.285909 318.000000
-265.363701 -421.587526 318.000000
-267.340827 -421.889143 318.000000
-269.317953 -422.190759 318.000000
-271.295079 -422.492376 318.000000
-273.272205 -422.793992 318.000000
-275.249331 -423.095609 318.000000
-277.226457 -423.397226 318.000000
-279.203583 -423.698842 318.000000
-281.180709 -424.000459 318.000000
-283.157835 -424.302076 318.000000
-285.134961 -424.603692 318.000000
-287.112087 -424.905309 318.000000
-289.089213 -425.206925 318.000000
-291.066339 -425.508542 318.000000
-293.043465 -425.810159 318.000000
-295.020592 -426.111775 318.000000
-296.997718 -426.413392 318.000000
-298.974844 -426.715008 318.000000
-300.951970 -427.016625 318.000000
-302.929096 -427.318242 318.000000
-304.906222 -427.619858 318.000000
-306.883348 -427.921475 318.000000
-308.860474 -428.223092 318.000000
-310.837600 -428.524708 318.000000
-312.814726 -428.826325 318.000000
-314.791852 -429.127941 318.000000
-316.768978 -429.429558 318.000000
-318.746104 -429.731175 318.000000
-320.723230 -430.032791 318.000000
-322.700356 -430.334408 318.000000
-324.677482 -430.636025 318.000000
-326.654608 -430.937641 318.000000
-328.631734 -431.239258 318.000000
-330.608860 -431.540874 318.000000
-332.585986 -431.842491 318.000000
-334.563113 -432.144108 318.000000
-336.540239 -432.445724 318.000000
-338.517365 -432.747341 318.000000
-340.494491 -433.048958 318.000000
-342.471617 -433.350574 318.000000
-344.448743 -433.652191 318.000000
-346.425869 -433.953807 318.000000
-348.402995 -434.255424 318.000000
-350.380121 -434.557041 318.000000
-352.357247 -434.858657 318.000000
-354.334373 -435.160274 318.000000
-356.311499 -435.461891 318.000000
-358.288625 -435.763507 318.000000
-360.265751 -436.065124 318.000000
-362.242877 -436.366740 318.000000
-364.220003 -436.668357 318.000000
-366.197129 -436.969974 318.000000
-368.174255 -437.271590 318.000000
-370.151381 -437.573207 318.000000
-372.128507 -437.874824 318.000000
-374.105633 -438.176440 318.000000
-376.082760 -438.478057 318.000000
-378.059886 -438.779673 318.000000
-380.037012 -439.081290 318.000000
-382.014138 -439.382907 318.000000
-383.991264 -439.684523 318.000000
-385.968390 -439.986140 318.000000
-387.945516 -440.287757 318.000000
-389.922642 -440.589373 318.000000
-391.899768 -440.890990 318.000000
-393.876894 -441.192606 318.000000
-395.854020 -441.494223 318.000000
-397.831146 -441.795840 318.000000
-399.808272 -442.097456 318.000000
-401.785398 -442.399073 318.000000
-403.762524 -442.700689 318.000000
-405.739650 -443.002306 318.000000
-407.716776 -443.303923 318.000000
-409.693902 -443.605539 318.000000
-411.671028 -443.907156 318.000000
-413.648154 -444.208773 318.000000
-415.625281 -444.510389 318.000000
-417.602407 -444.812006 318.000000
-419.579533 -445.113622 318.000000
-421.556659 -445.415239 318.000000
-423.533785 -445.716856 318.000000
-425.510911 -446.018472 318.000000
-427.488037 -446.320089 318.000000
-429.465163 -446.621706 318.000000
-431.442289 -446.923322 318.000000
-433.419415 -447.224939 318.000000
-435.396541 -447.526555 318.000000
-437.373667 -447.828172 318.000000
-439.350793 -448.129789 318.000000
-441.327919 -448.431405 318.000000
-443.305045 -448.733022 318.000000
-445.282171 -449.034639 318.000000
-447.259297 -449.336255 318.000000
-449.236423 -449.637872 318.000000
-451.213549 -449.939488 318.000000
-453.190675 -450.241105 318.000000
-455.167801 -450.542722 318.000000
-457.144928 -450.844338 318.000000
-459.122054 -451.145955 318.000000
-461.099180 -451.447572 318.000000
-463.076306 -451.749188 318.000000
-465.053432 -452.050805 318.000000
-467.030558 -452.352421 318.000000
-469.007684 -452.654038 318.000000
-470.984810 -452.955655 318.000000
-472.961936 -453.257271 318.000000
-474.939062 -453.558888 318.000000
-476.916188 -453.860505 318.000000
-478.893314 -454.162121 318.000000
-480.870440 -454.463738 318.000000
-482.847566 -454.765354 318.000000
-484.824692 -455.066971 318.000000
-486.801818 -455.368588 318.000000
-488.778944 -455.670204 318.000000
-490.756070 -455.971821 318.000000
-492.733196 -456.273438 318.000000
-494.710322 -456.575054 318.000000
-496.687449 -456.876671 318.000000
-498.664575 -457.178287 318.000000
-500.641701 -457.479904 318.000000
-502.618827 -457.781521 318.000000
-504.595953 -458.083137 318.000000
-506.573079 -458.384754 318.000000
-508.550205 -458.686370 318.000000
-510.527331 -458.987987 318.000000
-512.504457 -459.289604 318.000000
-514.481583 -459.591220 318.000000
-516.458709 -459.892837 318.000000
-518.435835 -460.194454 318.000000
-520.412961 -460.496070 318.000000
-522.390087 -460.797687 318.000000
-524.367213 -461.099303 318.000000
-526.344339 -461.400920 318.000000
-528.321465 -461.702537 318.000000
-530.298591 -462.004153 318.000000
-532.275717 -462.305770 318.000000
-534.252843 -462.607387 318.000000
-536.229969 -462.909003 318.000000
-538.207096 -463.210620 318.000000
-540.184222 -463.512236 318.000000
-542.161348 -463.813853 318.000000
-544.138474 -464.115470 318.000000
-546.115600 -464.417086 318.000000
-548.092726 -464.718703 318.000000
-550.069852 -465.020320 318.000000
-552.046978 -465.321936 318.000000
-554.024104 -465.623553 318.000000
-556.001230 -465.925169 318.000000
-557.978356 -466.226786 318.000000
-559.955482 -466.528403 318.000000
-561.932608 -466.830019 318.000000
-563.909734 -467.131636 318.000000
-565.886860 -467.433253 318.000000
-567.863986 -467.734869 318.000000
-569.841112 -468.036486 318.000000
-571.818238 -468.338102 318.000000
-573.795364 -468.639719 318.000000
-575.772490 -468.941336 318.000000
-577.749617 -469.242952 318.000000
-579.726743 -469.544569 318.000000
-581.703869 -469.846186 318.000000
-583.680995 -470.147802 318.000000
-585.658121 -470.449419 318.000000
-587.635247 -470.751035 318.000000
-589.612373 -471.052652 318.000000
-591.589499 -471.354269 318.000000
-593.566625 -471.655885 318.000000
-595.543751 -471.957502 318.000000
-597.520877 -472.259119 318.000000
-599.498003 -472.560735 318.000000
-601.475129 -472.862352 318.000000
-603.452255 -473.163968 318.000000
-605.429381 -473.465585 318.000000
-607.406507 -473.767202 318.000000
-609.383633 -474.068818 318.000000
-611.360759 -474.370435 318.000000
-613.337885 -474.672052 318.000000
-615.315011 -474.973668 318.000000
-617.292137 -475.275285 318.000000
-619.269264 -475.576901 318.000000
-621.246390 -475.878518 318.000000
-623.223516 -476.180135 318.000000
-625.200642 -476.481751 318.000000
-627.177768 -476.783368 318.000000
-629.154894 -477.084984 318.000000
-631.132020 -477.386601 318.000000
-633.109146 -477.688218 318.000000
-635.086272 -477.989834 318.000000
-637.063398 -478.291451 318.000000
-639.040524 -478.593068 318.000000
-641.017650 -478.894684 318.000000
-642.994776 -479.196301 318.000000
-644.971902 -479.497917 318.000000
-646.949028 -479.799534 318.000000
-648.926154 -480.101151 318.000000
-650.903280 -480.402767 318.000000
-652.880406 -480.704384 318.000000
-654.857532 -481.006001 318.000000
-656.834658 -481.307617 318.000000
-658.811785 -481.609234 318.000000
-660.788911 -481.910850 318.000000
-662.766037 -482.212467 318.000000
-664.743163 -482.514084 318.000000
-666.720289 -482.815700 318.000000
-668.697415 -483.117317 318.000000
-670.674541 -483.418934 318.000000
-672.651667 -483.720550 318.000000
-674.628793 -484.022167 318.000000
-676.605919 -484.323783 318.000000
-678.583045 -484.625400 318.000000
-680.560171 -484.927017 318.000000
-682.537297 -485.228633 318.000000
-684.514423 -485.530250 318.000000
-686.491549 -485.831867 318.000000
-688.468675 -486.133483 318.000000
-690.445801 -486.435100 318.000000
-692.422927 -486.736716 318.000000
-694.400053 -487.038333 318.000000
-696.377179 -487.339950 318.000000
-698.354305 -487.641566 318.000000
-700.331432 -487.943183 318.000000
-702.308558 -488.244800 318.000000
-704.285684 -488.546416 318.000000
-706.262810 -488.848033 318.000000
-708.239936 -489.149649 318.000000
-710.217062 -489.451266 318.000000
-712.194188 -489.752883 318.000000
-714.171314 -490.054499 318.000000
-716.148440 -490.356116 318.000000
-718.125566 -490.657733 318.000000
-720.102692 -490.959349 318.000000
-722.079818 -491.260966 318.000000
-724.056944 -491.562582 318.000000
-726.034070 -491.864199 318.000000
-728.011196 -492.165816 318.000000
-729.988322 -492.467432 318.000000
-731.965448 -492.769049 318.000000
-733.942574 -493.070665 318.000000
-735.919700 -493.372282 318.000000
-737.896826 -493.673899 318.000000
-739.873953 -493.975515 318.000000
-741.851079 -494.277132 318.000000
-743.828205 -494.578749 318.000000
-745.805331 -494.880365 318.000000
-747.782457 -495.181982 318.000000
-749.759583 -495.483598 318.000000
-751.736709 -495.785215 318.000000
-753.713835 -496.086832 318.000000
-755.690961 -496.388448 318.000000
-757.668087 -496.690065 318.000000
-759.645213 -496.991682 318.000000
-761.622339 -497.293298 318.000000
-763.599465 -497.594915 318.000000
-765.576591 -497.896531 318.000000
-767.553717 -498.198148 318.000000
-769.530843 -498.499765 318.000000
-771.507969 -498.801381 318.000000
-773.485095 -499.102998 318.000000
-775.462221 -499.404615 318.000000
-777.439347 -499.706231 318.000000
-779.416473 -500.007848 318.000000
-781.393600 -500.309464 318.000000
-783.370726 -500.611081 318.000000
-785.347852 -500.912698 318.000000
-787.324978 -501.214314 318.000000
-790.902000 -501.760000 318.000000
-790.902000 -501.760000 318.000000
-792.899600 -501.760000 318.097960
-794.897199 -501.760000 318.195920
-796.894799 -501.760000 318.293880
-798.892398 -501.760000 318.391840
-800.889998 -501.760000 318.489800
-802.887597 -501.760000 318.587760
-804.885197 -501.760000 318.685720
-806.882796 -501.760000 318.783680
-808.880396 -501.760000 318.881640
-811.294000 -501.760000 319.000000
-811.294000 -501.760000 319.000000
-811.294000 -499.760000 319.000000
-811.294000 -497.760000 319.000000
-811.294000 -495.760000 319.000000
-811.294000 -493.760000 319.000000
-811.294000 -491.760000 319.000000
-811.294000 -489.760000 319.000000
-811.294000 -487.760000 319.000000
-811.294000 -485.760000 319.000000
-811.294000 -483.760000 319.000000
-811.294000 -481.760000 319.000000
-811.294000 -479.760000 319.000000
-811.294000 -477.760000 319.000000
-811.294000 -475.760000 319.000000
-811.294000 -473.760000 319.000000
-811.294000 -471.760000 319.000000
-811.294000 -469.760000 319.000000
-811.294000 -467.760000 319.000000
-811.294000 -465.760000 319.000000
-811.294000 -463.760000 319.000000
-811.294000 -461.760000 319.000000
-811.294000 -459.760000 319.000000
-811.294000 -457.760000 319.000000
-811.294000 -455.760000 319.000000
-811.294000 -453.760000 319.000000
-811.294000 -451.760000 319.000000
-811.294000 -449.760000 319.000000
-811.294000 -447.760000 319.000000
-811.294000 -445.760000 319.000000
-811.294000 -443.760000 319.000000
-811.294000 -441.760000 319.000000
-811.294000 -439.760000 319.000000
-811.294000 -437.760000 319.000000
-811.294000 -435.760000 319.000000
-811.294000 -433.760000 319.000000
-811.294000 -431.760000 319.000000
-811.294000 -429.760000 319.000000
-811.294000 -427.760000 319.000000
-811.294000 -425.760000 319.000000
-811.294000 -423.760000 319.000000
-811.294000 -421.760000 319.000000
-811.294000 -419.760000 319.000000
-811.294000 -417.760000 319.000000
-811.294000 -415.760000 319.000000
-811.294000 -413.760000 319.000000
-811.294000 -411.760000 319.000000
-811.294000 -409.760000 319.000000
-811.294000 -407.760000 319.000000
-811.294000 -405.760000 319.000000
-811.294000 -403.760000 319.000000
-811.294000 -401.760000 319.000000
-811.294000 -399.760000 319.000000
-811.294000 -397.760000 319.000000
-811.294000 -395.760000 319.000000
-811.294000 -393.760000 319.000000
-811.294000 -391.760000 319.000000
-811.294000 -389.760000 319.000000
-811.294000 -387.760000 319.000000
-811.294000 -385.760000 319.000000
-811.294000 -383.760000 319.000000
-811.294000 -381.760000 319.000000
-811.294000 -379.760000 319.000000
-811.294000 -377.760000 319.000000
-811.294000 -375.760000 319.000000
-811.294000 -373.760000 319.000000
-811.294000 -371.760000 319.000000
-811.294000 -369.760000 319.000000
-811.294000 -367.760000 319.000000
-811.294000 -365.760000 319.000000
-811.294000 -363.760000 319.000000
-811.294000 -361.760000 319.000000
-811.294000 -359.760000 319.000000
-811.294000 -357.760000 319.000000
-811.294000 -355.760000 319.000000
-811.294000 -353.760000 319.000000
-811.294000 -351.760000 319.000000
-811.294000 -349.760000 319.000000
-811.294000 -347.760000 319.000000
-811.294000 -345.760000 319.000000
-811.294000 -343.760000 319.000000
-811.294000 -341.760000 319.000000
-811.294000 -339.760000 319.000000
-811.294000 -337.760000 319.000000
-811.294000 -335.760000 319.000000
-811.294000 -333.760000 319.000000
-811.294000 -331.760000 319.000000
-811.294000 -329.760000 319.000000
-811.294000 -327.760000 319.000000
-811.294000 -325.760000 319.000000
-811.294000 -323.760000 319.000000
-811.294000 -321.760000 319.000000
-811.294000 -319.760000 319.000000
-811.294000 -317.760000 319.000000
-811.294000 -315.760000 319.000000
-811.294000 -313.760000 319.000000
-811.294000 -311.760000 319.000000
-811.294000 -309.760000 319.000000
-811.294000 -307.760000 319.000000
-811.294000 -305.760000 319.000000
-811.294000 -303.760000 319.000000
-811.294000 -301.760000 319.000000
-811.294000 -299.760000 319.000000
-811.294000 -297.760000 319.000000
-811.294000 -295.760000 319.000000
-811.294000 -293.760000 319.000000
-811.294000 -291.760000 319.000000
-811.294000 -289.760000 319.000000
-811.294000 -287.760000 319.000000
-811.294000 -285.760000 319.000000
-811.294000 -283.760000 319.000000
-811.294000 -281.760000 319.000000
-811.294000 -279.760000 319.000000
-811.294000 -277.760000 319.000000
-811.294000 -275.760000 319.000000
-811.294000 -273.760000 319.000000
-811.294000 -271.760000 319.000000
-811.294000 -269.760000 319.000000
-811.294000 -267.760000 319.000000
-811.294000 -265.760000 319.000000
-811.294000 -263.760000 319.000000
-811.294000 -261.760000 319.000000
-811.294000 -259.760000 319.000000
-811.294000 -256.000000 319.000000
-811.294000 -256.000000 319.000000
-809.294000 -256.000000 319.000000
-807.294000 -256.000000 319.000000
-805.294000 -256.000000 319.000000
-803.294000 -256.000000 319.000000
-801.294000 -256.000000 319.000000
-799.294000 -256.000000 319.000000
-797.294000 -256.000000 319.000000
-795.294000 -256.000000 319.000000
-793.294000 -256.000000 319.000000
-791.294000 -256.000000 319.000000
-789.294000 -256.000000 319.000000
-787.294000 -256.000000 319.000000
-785.294000 -256.000000 319.000000
-783.294000 -256.000000 319.000000
-781.294000 -256.000000 319.000000
-779.294000 -256.000000 319.000000
-777.294000 -256.000000 319.000000
-775.294000 -256.000000 319.000000
-773.294000 -256.000000 319.000000
-770.510000 -256.000000 319.000000
-770.510000 -256.000000 319.000000
-770.510000 -258.000000 319.000000
-770.510000 -260.000000 319.000000
-770.510000 -262.000000 319.000000
-770.510000 -264.000000 319.000000
-770.510000 -266.000000 319.000000
-770.510000 -268.000000 319.000000
-770.510000 -270.000000 319.000000
-770.510000 -272.000000 319.000000
-770.510000 -274.000000 319.000000
-770.510000 -276.000000 319.000000
-770.510000 -278.000000 319.000000
-770.510000 -280.000000 319.000000
-770.510000 -282.000000 319.000000
-770.510000 -284.000000 319.000000
-770.510000 -286.000000 319.000000
-770.510000 -288.000000 319.000000
-770.510000 -290.000000 319.000000
-770.510000 -292.000000 319.000000
-770.510000 -294.000000 319.000000
-770.510000 -296.000000 319.000000
-770.510000 -298.000000 319.000000
-770.510000 -300.000000 319.000000
-770.510000 -302.000000 319.000000
-770.510000 -304.000000 319.000000
-770.510000 -306.000000 319.000000
-770.510000 -308.000000 319.000000
-770.510000 -310.000000 319.000000
-770.510000 -312.000000 319.000000
-770.510000 -314.000000 319.000000
-770.510000 -316.000000 319.000000
-770.510000 -318.000000 319.000000
-770.510000 -320.000000 319.000000
-770.510000 -322.000000 319.000000
-770.510000 -324.000000 319.000000
-770.510000 -326.000000 319.000000
-770.510000 -328.000000 319.000000
-770.510000 -330.000000 319.000000
-770.510000 -332.000000 319.000000
-770.510000 -334.000000 319.000000
-770.510000 -336.000000 319.000000
-770.510000 -338.000000 319.000000
-770.510000 -340.000000 319.000000
-770.510000 -342.000000 319.000000
-770.510000 -344.000000 319.000000
-770.510000 -346.000000 319.000000
-770.510000 -348.000000 319.000000
-770.510000 -350.000000 319.000000
-770.510000 -352.000000 319.000000
-770.510000 -354.000000 319.000000
-770.510000 -356.000000 319.000000
-770.510000 -358.000000 319.000000
-770.510000 -360.000000 319.000000
-770.510000 -362.000000 319.000000
-770.510000 -364.000000 319.000000
-770.510000 -366.000000 319.000000
-770.510000 -368.000000 319.000000
-770.510000 -370.000000 319.000000
-770.510000 -372.000000 319.000000
-770.510000 -374.000000 319.000000
-770.510000 -376.000000 319.000000
-770.510000 -378.000000 319.000000
-770.510000 -380.000000 319.000000
-770.510000 -382.000000 319.000000
-770.510000 -384.000000 319.000000
-770.510000 -386.000000 319.000000
-770.510000 -388.000000 319.000000
-770.510000 -390.000000 319.000000
-770.510000 -392.000000 319.000000
-770.510000 -394.000000 319.000000
-770.510000 -396.000000 319.000000
-770.510000 -398.000000 319.000000
-770.510000 -400.000000 319.000000
-770.510000 -402.000000 319.000000
-770.510000 -404.000000 319.000000
-770.510000 -406.000000 319.000000
-770.510000 -408.000000 319.000000
-770.510000 -410.000000 319.000000
-770.510000 -412.000000 319.000000
-770.510000 -414.000000 319.000000
-770.510000 -416.000000 319.000000
-770.510000 -418.000000 319.000000
-770.510000 -420.000000 319.000000
-770.510000 -422.000000 319.000000
-770.510000 -424.000000 319.000000
-770.510000 -426.000000 319.000000
-770.510000 -428.000000 319.000000
-770.510000 -430.000000 319.000000
-770.510000 -432.000000 319.000000
-770.510000 -434.000000 319.000000
-770.510000 -436.000000 319.000000
-770.510000 -438.000000 319.000000
-770.510000 -440.000000 319.000000
-770.510000 -442.000000 319.000000
-770.510000 -444.000000 319.000000
-770.510000 -446.000000 319.000000
-770.510000 -448.000000 319.000000
-770.510000 -450.000000 319.000000
-770.510000 -452.000000 319.000000
-770.510000 -454.000000 319.000000
-770.510000 -456.000000 319.000000
-770.510000 -458.000000 319.000000
-770.510000 -460.000000 319.000000
-770.510000 -462.000000 319.000000
-770.510000 -464.000000 319.000000
-770.510000 -466.000000 319.000000
-770.510000 -468.000000 319.000000
-770.510000 -470.000000 319.000000
-770.510000 -472.000000 319.000000
-770.510000 -474.000000 319.000000
-770.510000 -476.000000 319.000000
-770.510000 -478.000000 319.000000
-770.510000 -480.000000 319.000000
-770.510000 -482.000000 319.000000
-770.510000 -484.000000 319.000000
-770.510000 -486.000000 319.000000
-770.510000 -488.000000 319.000000
-770.510000 -490.000000 319.000000
-770.510000 -492.000000 319.000000
-770.510000 -494.000000 319.000000
-770.510000 -496.000000 319.000000
-770.510000 -498.000000 319.000000
-770.510000 -500.000000 319.000000
-770.510000 -502.000000 319.000000
-770.510000 -504.000000 319.000000
-770.510000 -506.000000 319.000000
-770.510000 -508.000000 319.000000
-770.510000 -510.000000 319.000000
-770.510000 -512.000000 319.000000
-770.510000 -514.000000 319.000000
-770.510000 -516.000000 319.000000
-770.510000 -518.000000 319.000000
-770.510000 -520.000000 319.000000
-770.510000 -522.000000 319.000000
-770.510000 -524.000000 319.000000
-770.510000 -526.000000 319.000000
-770.510000 -528.000000 319.000000
-770.510000 -530.000000 319.000000
-770.510000 -532.000000 319.000000
-770.510000 -534.000000 319.000000
-770.510000 -536.000000 319.000000
-770.510000 -538.000000 319.000000
-770.510000 -540.000000 319.000000
-770.510000 -542.000000 319.000000
-770.510000 -544.000000 319.000000
-770.510000 -546.000000 319.000000
-770.510000 -548.000000 319.000000
-770.510000 -550.000000 319.000000
-770.510000 -552.000000 319.000000
-770.510000 -554.000000 319.000000
-770.510000 -556.000000 319.000000
-770.510000 -558.000000 319.000000
-770.510000 -560.000000 319.000000
-770.510000 -562.000000 319.000000
-770.510000 -564.000000 319.000000
-770.510000 -566.000000 319.000000
-770.510000 -568.000000 319.000000
-770.510000 -570.000000 319.000000
-770.510000 -572.000000 319.000000
-770.510000 -574.000000 319.000000
-770.510000 -576.000000 319.000000
-770.510000 -578.000000 319.000000
-770.510000 -580.000000 319.000000
-770.510000 -582.000000 319.000000
-770.510000 -584.000000 319.000000
-770.510000 -586.000000 319.000000
-770.510000 -588.000000 319.000000
-770.510000 -590.000000 319.000000
-770.510000 -592.000000 319.000000
-770.510000 -594.000000 319.000000
-770.510000 -596.000000 319.000000
-770.510000 -598.000000 319.000000
-770.510000 -600.000000 319.000000
-770.510000 -602.000000 319.000000
-770.510000 -604.000000 319.000000
-770.510000 -606.000000 319.000000
-770.510000 -608.000000 319.000000
-770.510000 -610.000000 319.000000
-770.510000 -612.000000 319.000000
-770.510000 -614.000000 319.000000
-770.510000 -616.000000 319.000000
-770.510000 -618.000000 319.000000
-770.510000 -620.000000 319.000000
-770.510000 -622.000000 319.000000
-770.510000 -624.000000 319.000000
-770.510000 -626.000000 319.000000
-770.510000 -628.000000 319.000000
-770.510000 -630.000000 319.000000
-770.510000 -632.000000 319.000000
-770.510000 -634.000000 319.000000
-770.510000 -636.000000 319.000000
-770.510000 -638.000000 319.000000
-770.510000 -640.000000 319.000000
-770.510000 -642.000000 319.000000
-770.510000 -644.000000 319.000000
-770.510000 -646.000000 319.000000
-770.510000 -648.000000 319.000000
-770.510000 -650.000000 319.000000
-770.510000 -652.000000 319.000000
-770.510000 -654.000000 319.000000
-770.510000 -656.000000 319.000000
-770.510000 -658.000000 319.000000
-770.510000 -660.000000 319.000000
-770.510000 -662.000000 319.000000
-770.510000 -664.000000 319.000000
